<?xml version="1.0" encoding="UTF-8"?><svg id="LOGO" xmlns="http://www.w3.org/2000/svg" xmlns:xlink="http://www.w3.org/1999/xlink" viewBox="0 0 48 48"><defs><style>.cls-1{fill:url(#WEMIX3.0_Spectrum);}</style><linearGradient id="WEMIX3.0_Spectrum" x1="-2.38" y1="-2.38" x2="61.86" y2="61.86" gradientTransform="matrix(1, 0, 0, 1, 0, 0)" gradientUnits="userSpaceOnUse"><stop offset="0" stop-color="#fc829f"/><stop offset=".06" stop-color="#fd5e84"/><stop offset=".12" stop-color="#fd416e"/><stop offset=".18" stop-color="#fe2c5f"/><stop offset=".24" stop-color="#fe2056"/><stop offset=".3" stop-color="#ff1c53"/><stop offset=".31" stop-color="#fb2471"/><stop offset=".32" stop-color="#f531a0"/><stop offset=".33" stop-color="#f03bc6"/><stop offset=".34" stop-color="#ec42e1"/><stop offset=".35" stop-color="#ea47f2"/><stop offset=".36" stop-color="#ea49f8"/><stop offset=".42" stop-color="#c44dfc"/><stop offset=".45" stop-color="#b250ff"/><stop offset=".5" stop-color="#5e5ff5"/><stop offset="1" stop-color="#323cff"/></linearGradient></defs><path class="cls-1" d="M24,0C10.75,0,0,10.75,0,24c0,1.44,.13,2.84,.37,4.2H5.7c.68,0,1.09-.22,1.35-.65l1.87-3.1,2.4,7.44c.24,.75,.79,1.14,1.54,1.14,.77,0,1.4-.47,1.55-1.23l1.74-8.19,1.89,13.06c.12,.86,.53,1.29,1.4,1.29h0c.86,0,1.27-.47,1.39-1.32l3.85-25.41c.11-.79-.44-1.52-1.23-1.63-.78-.11-1.52,.44-1.63,1.23l-2.38,16.29-1.6-10.87c-.11-.84-.74-1.35-1.43-1.37-.78-.02-1.36,.47-1.53,1.3l-2.29,10.64-1.83-5.71c-.14-.62-.7-1.08-1.3-1.15-.84-.1-1.31,.33-1.66,.9l-2.84,4.46h-1.69c-.03-.44-.05-.88-.05-1.32C3.24,12.53,12.53,3.24,24,3.24c9.24,0,17.08,6.05,19.76,14.4h3.38C44.35,7.47,35.05,0,24,0Zm23.63,19.8h-5.34c-.68,0-1.09,.22-1.35,.65l-1.87,3.1-2.4-7.44c-.24-.75-.79-1.14-1.54-1.14-.77,0-1.4,.47-1.55,1.23l-1.74,8.19-1.89-13.06c-.12-.86-.53-1.29-1.4-1.29h0c-.86,0-1.27,.47-1.39,1.32l-3.85,25.41c-.11,.79,.44,1.52,1.23,1.63,.78,.11,1.52-.44,1.63-1.23l2.38-16.29,1.6,10.87c.11,.84,.74,1.35,1.43,1.37,.78,.02,1.36-.47,1.53-1.3l2.29-10.64,1.83,5.71c.14,.62,.7,1.08,1.3,1.15,.84,.1,1.31-.33,1.66-.9l2.84-4.46h1.7c.03,.44,.05,.88,.05,1.32,0,11.47-9.29,20.76-20.76,20.76-9.24,0-17.08-6.05-19.76-14.4H.86c2.79,10.17,12.09,17.64,23.14,17.64,13.25,0,24-10.75,24-24,0-1.44-.13-2.84-.37-4.2Z"/></svg>